<svg xmlns="http://www.w3.org/2000/svg" viewBox="0 0 200 200"><g transform="translate(0.00 0.00) scale(1.0)"><path d="M186.2 100.0C186.4 107.4 185.5 115.2 183.7 122.4C182.0 129.7 179.4 137.3 175.6 143.7C171.8 150.1 166.3 155.7 160.8 160.8C155.3 165.9 149.3 170.7 142.8 174.2C136.3 177.7 129.1 180.2 121.9 181.9C114.8 183.6 107.3 184.2 100.0 184.3C92.7 184.5 85.0 184.3 77.9 182.6C70.7 180.9 63.6 177.9 57.1 174.4C50.5 170.8 43.8 166.7 38.5 161.5C33.1 156.3 28.6 149.8 25.0 143.3C21.4 136.8 18.7 129.5 16.9 122.3C15.2 115.0 14.4 107.4 14.5 100.0C14.6 92.6 15.5 85.0 17.6 77.9C19.7 70.9 23.2 64.1 26.9 57.8C30.6 51.4 34.8 45.2 39.8 39.8C44.8 34.3 50.5 29.1 56.7 25.0C63.0 21.0 70.1 17.4 77.3 15.4C84.5 13.3 92.5 12.6 100.0 12.8C107.5 13.0 115.2 14.5 122.4 16.6C129.5 18.7 136.9 21.4 143.1 25.4C149.3 29.3 154.5 35.0 159.7 40.3C164.8 45.7 170.1 51.1 173.9 57.3C177.7 63.6 180.3 70.8 182.3 77.9C184.4 85.0 186.0 92.6 186.2 100.0Z" fill="#FFE066" stroke="#4A3A12" stroke-width="12"/><path d="M112.8 102.0L167.7 94.9A67.9 67.9 0 0 1 156.8 137.3L112.2 104.5ZM107.7 110.5L150.7 143.5A66.8 66.8 0 0 1 114.4 165.2L105.6 111.7ZM98.1 112.9L105.6 167.0A67.3 67.3 0 0 1 61.3 155.1L95.1 112.0ZM89.5 107.7L56.7 150.4A66.5 66.5 0 0 1 34.8 112.7L88.1 105.3ZM87.1 98.4L36.2 106.7A64.1 64.1 0 0 1 46.5 64.7L87.8 95.4ZM92.4 89.4L51.7 57.2A64.6 64.6 0 0 1 87.6 36.6L94.7 88.1ZM102.0 87.2L95.6 35.2A64.9 64.9 0 0 1 136.8 46.5L104.8 87.9ZM110.6 92.4L143.5 50.5A65.9 65.9 0 0 1 164.9 88.4L112.0 94.9Z" fill="#FFD437" stroke="#4A3A12" stroke-width="8" stroke-linejoin="round"/></g></svg>